<svg width="60" height="76" viewBox="0 0 60 76" fill="none" xmlns="http://www.w3.org/2000/svg">
<g clip-path="url(#clip0_84_11)">
<path d="M30 2.83981L47.9881 36.6667H12.0119L30 2.83981Z" fill="#020002" stroke="white" stroke-width="3"/>
<path d="M30 74.6667C45.8322 74.6667 58.6667 61.8322 58.6667 46C58.6667 30.1678 45.8322 17.3333 30 17.3333C14.1678 17.3333 1.33334 30.1678 1.33334 46C1.33334 61.8322 14.1678 74.6667 30 74.6667Z" fill="#020002" stroke="white" stroke-width="3"/>
<path d="M30 5.33333L50.2072 43.3333H9.79276L30 5.33333Z" fill="#020002"/>
<path d="M12.6547 53.5827C12.02 53.5827 11.3702 53.5297 10.7053 53.424C10.0556 53.3333 9.42845 53.1973 8.82401 53.016C8.23468 52.8347 7.70578 52.608 7.23734 52.336C6.9049 52.1547 6.67068 51.9204 6.53468 51.6333C6.39868 51.3311 6.34578 51.0289 6.37601 50.7267C6.42134 50.4244 6.53468 50.16 6.71601 49.9333C6.91245 49.6916 7.15424 49.5404 7.44134 49.48C7.74357 49.4044 8.07601 49.4573 8.43868 49.6387C9.05824 49.9863 9.73068 50.2431 10.456 50.4093C11.1965 50.5756 11.9293 50.6587 12.6547 50.6587C13.7577 50.6587 14.5436 50.4924 15.012 50.16C15.4804 49.8124 15.7147 49.3817 15.7147 48.868C15.7147 48.4297 15.5484 48.0823 15.216 47.8253C14.8836 47.5684 14.3017 47.3493 13.4707 47.168L10.9093 46.624C9.45868 46.3217 8.37824 45.808 7.66801 45.0827C6.9729 44.3423 6.62534 43.3751 6.62534 42.1813C6.62534 41.4257 6.78401 40.7383 7.10134 40.1187C7.41868 39.4991 7.86445 38.9627 8.43868 38.5093C9.0129 38.056 9.69291 37.7084 10.4787 37.4667C11.2796 37.2249 12.156 37.104 13.108 37.104C13.9543 37.104 14.7853 37.2097 15.6013 37.4213C16.4173 37.6177 17.1351 37.9124 17.7547 38.3053C18.0569 38.4867 18.2609 38.7209 18.3667 39.008C18.4876 39.28 18.5253 39.5596 18.48 39.8467C18.4497 40.1187 18.3364 40.3604 18.14 40.572C17.9587 40.7836 17.7244 40.9196 17.4373 40.98C17.1503 41.0404 16.8027 40.9724 16.3947 40.776C15.896 40.5191 15.3671 40.3303 14.808 40.2093C14.2489 40.0884 13.6747 40.028 13.0853 40.028C12.4507 40.028 11.9067 40.1111 11.4533 40.2773C11.0151 40.4436 10.6751 40.6777 10.4333 40.98C10.2067 41.2823 10.0933 41.6297 10.0933 42.0227C10.0933 42.4609 10.252 42.816 10.5693 43.088C10.8867 43.36 11.4382 43.5791 12.224 43.7453L14.7853 44.2893C16.2663 44.6067 17.3693 45.1204 18.0947 45.8307C18.82 46.5257 19.1827 47.4476 19.1827 48.596C19.1827 49.3516 19.0316 50.0391 18.7293 50.6587C18.4271 51.2631 17.9889 51.7844 17.4147 52.2227C16.8404 52.6609 16.1529 53.0009 15.352 53.2427C14.5511 53.4693 13.652 53.5827 12.6547 53.5827ZM22.8915 57.6173C22.3324 57.6173 21.9017 57.4663 21.5995 57.164C21.3124 56.8769 21.1688 56.4463 21.1688 55.872V43.7453C21.1688 43.1863 21.3124 42.7631 21.5995 42.476C21.9017 42.1737 22.3173 42.0227 22.8461 42.0227C23.4053 42.0227 23.8284 42.1737 24.1155 42.476C24.4027 42.7631 24.5461 43.1863 24.5461 43.7453V45.2867L24.2968 44.4027C24.5235 43.6773 24.9768 43.0956 25.6568 42.6573C26.352 42.204 27.1453 41.9773 28.0368 41.9773C29.004 41.9773 29.8501 42.2116 30.5755 42.68C31.316 43.1484 31.8901 43.8133 32.2981 44.6747C32.7061 45.536 32.9101 46.5636 32.9101 47.7573C32.9101 48.9511 32.7061 49.9863 32.2981 50.8627C31.8901 51.7391 31.3235 52.4116 30.5981 52.88C29.8728 53.3484 29.0191 53.5827 28.0368 53.5827C27.1604 53.5827 26.3821 53.3711 25.7021 52.948C25.0221 52.5097 24.5613 51.9431 24.3195 51.248H24.5915V55.872C24.5915 56.4463 24.4404 56.8769 24.1381 57.164C23.8511 57.4663 23.4355 57.6173 22.8915 57.6173ZM27.0168 51.0213C27.5004 51.0213 27.9235 50.9004 28.2861 50.6587C28.664 50.4169 28.9511 50.0617 29.1475 49.5933C29.3591 49.1097 29.4648 48.4977 29.4648 47.7573C29.4648 46.6543 29.2381 45.8457 28.7848 45.332C28.3315 44.8031 27.7421 44.5387 27.0168 44.5387C26.5333 44.5387 26.1027 44.652 25.7248 44.8787C25.3621 45.1053 25.0751 45.4604 24.8635 45.944C24.652 46.4124 24.5461 47.0169 24.5461 47.7573C24.5461 48.8604 24.7728 49.684 25.2261 50.228C25.6795 50.7569 26.2764 51.0213 27.0168 51.0213ZM36.7261 53.5147C36.1671 53.5147 35.7364 53.356 35.4341 53.0387C35.1471 52.7063 35.0035 52.2453 35.0035 51.656V43.904C35.0035 43.2996 35.1471 42.8387 35.4341 42.5213C35.7364 42.1889 36.1671 42.0227 36.7261 42.0227C37.2701 42.0227 37.6857 42.1889 37.9728 42.5213C38.2751 42.8387 38.4261 43.2996 38.4261 43.904V51.656C38.4261 52.2453 38.2825 52.7063 37.9955 53.0387C37.7084 53.356 37.2852 53.5147 36.7261 53.5147ZM36.7261 40.164C36.0915 40.164 35.6004 40.0204 35.2528 39.7333C34.9204 39.4311 34.7541 39.008 34.7541 38.464C34.7541 37.9049 34.9204 37.4817 35.2528 37.1947C35.6004 36.8924 36.0915 36.7413 36.7261 36.7413C37.3608 36.7413 37.8444 36.8924 38.1768 37.1947C38.5092 37.4817 38.6755 37.9049 38.6755 38.464C38.6755 39.008 38.5092 39.4311 38.1768 39.7333C37.8444 40.0204 37.3608 40.164 36.7261 40.164ZM42.7912 53.5373C42.2321 53.5373 41.8015 53.3863 41.4992 53.084C41.2121 52.7817 41.0685 52.3511 41.0685 51.792V43.7453C41.0685 43.1863 41.2121 42.7631 41.4992 42.476C41.8015 42.1737 42.2171 42.0227 42.7459 42.0227C43.2899 42.0227 43.7055 42.1737 43.9925 42.476C44.2797 42.7631 44.4232 43.1863 44.4232 43.7453V45.0373L44.1739 44.2893C44.5215 43.5489 45.0352 42.9823 45.7152 42.5893C46.4104 42.1813 47.1961 41.9773 48.0725 41.9773C48.9641 41.9773 49.6971 42.1511 50.2712 42.4987C50.8455 42.8311 51.2761 43.3449 51.5632 44.04C51.8504 44.72 51.9939 45.5889 51.9939 46.6467V51.792C51.9939 52.3511 51.8428 52.7817 51.5405 53.084C51.2535 53.3863 50.8304 53.5373 50.2712 53.5373C49.7272 53.5373 49.3041 53.3863 49.0019 53.084C48.7148 52.7817 48.5712 52.3511 48.5712 51.792V46.8053C48.5712 46.0347 48.4277 45.4831 48.1405 45.1507C47.8685 44.8031 47.4455 44.6293 46.8712 44.6293C46.1459 44.6293 45.5641 44.856 45.1259 45.3093C44.7028 45.7627 44.4912 46.3671 44.4912 47.1227V51.792C44.4912 52.9556 43.9245 53.5373 42.7912 53.5373Z" fill="white"/>
</g>
<defs>
<clipPath id="clip0_84_11">
<rect width="60" height="76" fill="white"/>
</clipPath>
</defs>
</svg>
